PathFileType	3	(X/Y/Z)	F:\ViconData\AntennenMessung\Messung1\Session1\ID13.trc
DataRate	CameraRate	NumFrames	NumMarkers	Units	OrigDataRate	OrigDataStartFrame	OrigNumFrames
120.0	120.0	4	70	mm	120.0	571	912	
Frame#	Time	Ashort			Along			Atop			A4			Bshort			Blong			Btop			B4			Cshort			Clong			Ctop			C4			Dshort			Dlong			Dtop			D4			Eshort			Elong			Etop			E4			Fshort			Flong			Ftop			F4			Gshort			Glong			Gtop			G4			Hshort			Hlong			Htop			H4			I1			I2			I3			I4			I5			WandAshort			WandAlong			WandAtop			WandA4			WandA15			WandBshort			WandB4			WandB5			WandBtop			WandBlong			WandCshort			WandClong			WandCtop			WandC4			WandC5			Acenter			Aantenna			Bcenter			Bantenna			Ccenter			Cantenna			Dcenter			Dantenna			Ecenter			Eantenna			Fcenter			Fantenna			Gcenter			Gantenna			Hcenter			Hantenna			Icenter			Iantenna			
		X1	Y1	Z1	X2	Y2	Z2	X3	Y3	Z3	X4	Y4	Z4	X5	Y5	Z5	X6	Y6	Z6	X7	Y7	Z7	X8	Y8	Z8	X9	Y9	Z9	X10	Y10	Z10	X11	Y11	Z11	X12	Y12	Z12	X13	Y13	Z13	X14	Y14	Z14	X15	Y15	Z15	X16	Y16	Z16	X17	Y17	Z17	X18	Y18	Z18	X19	Y19	Z19	X20	Y20	Z20	X21	Y21	Z21	X22	Y22	Z22	X23	Y23	Z23	X24	Y24	Z24	X25	Y25	Z25	X26	Y26	Z26	X27	Y27	Z27	X28	Y28	Z28	X29	Y29	Z29	X30	Y30	Z30	X31	Y31	Z31	X32	Y32	Z32	X33	Y33	Z33	X34	Y34	Z34	X35	Y35	Z35	X36	Y36	Z36	X37	Y37	Z37	X38	Y38	Z38	X39	Y39	Z39	X40	Y40	Z40	X41	Y41	Z41	X42	Y42	Z42	X43	Y43	Z43	X44	Y44	Z44	X45	Y45	Z45	X46	Y46	Z46	X47	Y47	Z47	X48	Y48	Z48	X49	Y49	Z49	X50	Y50	Z50	X51	Y51	Z51	X52	Y52	Z52	X53	Y53	Z53	X54	Y54	Z54	X55	Y55	Z55	X56	Y56	Z56	X57	Y57	Z57	X58	Y58	Z58	X59	Y59	Z59	X60	Y60	Z60	X61	Y61	Z61	X62	Y62	Z62	X63	Y63	Z63	X64	Y64	Z64	X65	Y65	Z65	X66	Y66	Z66	X67	Y67	Z67	X68	Y68	Z68	X69	Y69	Z69	X70	Y70	Z70	
571	4.75	-1038.2626	214.61664	-1644.1429	-1109.3962	204.07649	-1599.3866	-1063.6049	173.01662	-1625.8695	-1054.1583	262.24667	-1634.8787	-1352.7205	235.48862	1003.7827	-1281.4463	227.33353	1052.223	-1322.7195	194.11369	1020.7513	-1284.6654	287.84247	1052.8665	814.42896	187.08008	1209.6781	892.55286	178.48524	1179.0643	844.44855	145.45073	1198.4104	861.16101	292.60941	1168.5898	1115.7848	209.69975	-1401.6396	1056.4321	194.10078	-1460.2278	1095.1549	162.47704	-1423.8394	1069.766	238.82849	-1425.9064	-1204.5464	1686.0161	-1563.2568	-1129.1284	1688.3047	-1606.0387	-1173.178	1724.4739	-1581.9166	-1133.7516	1581.0366	-1603.7297	-1239.5135	1698.9729	1119.3895	-1309.1898	1698.5729	1071.8179	-1270.4764	1736.4146	1096.9077	-1245.6965	1592.9728	1110.7084	988.83954	1664.2405	1162.2582	957.26215	1700.546	1183.7871	922.74774	1662.062	1214.9298	939.8064	1659.426	1159.9312	999.11121	1668.451	-1579.4196	1058.9363	1670.1466	-1518.7296	1025.0648	1708.064	-1551.178	1059.3307	1672.1638	-1585.4586	-187.68248	1177.3058	-236.59145	-194.12782	1179.005	-152.48616	-191.48869	1215.0883	-199.66112	-222.39828	1175.6343	-202.04935	-142.49992	1180.4891	-196.04028																																														-1068.5931	210.12244	-1625.0592	-1073.7883	248.76566	-1624.2156	-1321.3524	231.89954	1025.1013	-1319.9517	270.61862	1029.5588	847.89911	183.39783	1196.5623	851.42676	222.19199	1194.673	1088.892	202.63185	-1428.1859	1082.9161	240.94745	-1432.3335	-1171.9462	1687.0052	-1581.7496	-1170.6649	1648.0267	-1581.576	-1270.9539	1698.7924	1097.9235	-1271.4486	1659.8097	1098.9761	953.13501	1705.2909	1186.601	972.90149	1733.4106	1168.1735	1026.5635	1669.229	-1551.5703	1028.0674	1630.26	-1551.964	-190.57527	1178.0684	-198.8432	-189.61354	1139.0898	-197.98198
572	4.7583333	-1038.2256	214.56351	-1644.0941	-1109.3815	204.01355	-1599.3396	-1063.5394	173.04694	-1625.8632	-1054.1475	262.28247	-1634.9083	-1352.7297	235.48077	1003.7656	-1281.4454	227.45229	1052.1813	-1322.7646	194.03853	1020.8169	-1284.6747	287.83972	1052.8193	814.00592	187.50125	1209.5442	892.58417	178.44212	1179.1064	844.42871	145.48164	1198.1973	861.19995	292.44061	1168.3585	1115.8414	209.96834	-1401.7917	1056.2655	194.07796	-1460.2214	1095.1119	162.40659	-1423.8699	1069.7463	238.85674	-1425.9115	-1204.5417	1685.9999	-1563.2634	-1129.1621	1688.4225	-1606.5612	-1173.1648	1724.4755	-1581.9121	-1134.01	1581.0571	-1603.88	-1239.5216	1698.9824	1119.3928	-1309.2434	1698.6178	1071.8259	-1270.2863	1736.1879	1096.8413	-1245.7047	1592.9473	1110.7003	988.79761	1664.2321	1162.2334	957.28479	1700.5144	1183.8472	922.0824	1662.2882	1214.9137	939.80835	1659.4248	1159.8333	999.11902	1668.4396	-1579.4177	1058.9471	1670.1544	-1518.7302	1025.0654	1708.0587	-1551.1954	1059.3113	1672.1479	-1585.4475	-187.67004	1177.2926	-236.5994	-194.13237	1178.9933	-152.47188	-191.5184	1215.0424	-199.66096	-222.40636	1175.6516	-202.0571	-142.49606	1180.4698	-196.02338																																														-1068.5137	210.07281	-1625.0438	-1073.7052	248.71625	-1624.1887	-1321.3767	231.9496	1025.0602	-1319.9589	270.68198	1029.3954	848.09961	183.57063	1196.3376	851.83661	222.34502	1194.4448	1088.7544	202.74358	-1428.3574	1082.7189	241.03746	-1432.6178	-1171.9899	1687.0459	-1581.9609	-1170.7664	1648.0652	-1582.0118	-1270.8802	1698.8184	1097.9988	-1271.5	1659.842	1099.2059	952.81488	1705.6608	1186.913	972.76416	1733.8152	1168.7371	1026.5654	1669.2263	-1551.5769	1028.0708	1630.2572	-1551.9597	-190.57051	1178.0559	-198.84039	-189.57164	1139.0782	-197.97566
573	4.7666667	-1038.2532	214.59412	-1644.137	-1109.3806	204.01936	-1599.3488	-1063.6317	172.95461	-1625.8812	-1054.1575	262.28476	-1634.8977	-1352.774	235.4182	1003.8846	-1281.4294	227.37195	1052.2198	-1322.7433	194.12076	1020.842	-1284.5099	287.85977	1052.7556	814.09467	187.46718	1209.5411	892.67249	178.57593	1179.0344	844.47864	145.47975	1198.2815	861.16699	292.44046	1168.1007	1115.7792	209.65837	-1401.647	1056.2977	194.00255	-1460.1694	1095.0962	162.39748	-1423.8641	1069.7755	238.81424	-1425.8947	-1204.54	1686.0138	-1563.2589	-1129.1282	1688.2834	-1606.0472	-1173.1649	1724.4761	-1581.9211	-1134.0204	1581.0414	-1603.8479	-1239.2932	1698.655	1119.296	-1309.2063	1698.5502	1071.8088	-1270.3896	1736.3059	1096.87	-1245.6753	1592.9357	1110.7054	988.7995	1664.1907	1162.2275	957.45099	1700.3043	1183.8782	922.6236	1662.0486	1214.9012	939.82782	1659.4203	1159.8694	999.11652	1668.4354	-1579.4312	1058.9478	1670.141	-1518.7148	1025.062	1708.0525	-1551.1826	1059.3142	1672.1914	-1585.5426	-187.67126	1177.2952	-236.59084	-194.1216	1178.9973	-152.47139	-191.50214	1215.0109	-199.67181	-222.3978	1175.6313	-202.06995	-142.50546	1180.4595	-196.01656																																														-1068.6101	210.08083	-1625.0215	-1073.792	248.7247	-1624.1267	-1321.3978	231.87958	1025.1416	-1320.0179	270.60492	1029.5513	848.04852	183.62521	1196.3589	851.67786	222.40674	1194.4044	1088.7917	202.55513	-1428.1992	1082.7771	240.866	-1432.335	-1171.9425	1686.9948	-1581.7545	-1170.6711	1648.016	-1581.5813	-1270.9573	1698.6074	1097.7887	-1271.5442	1659.6235	1098.7389	953.10638	1705.3092	1186.8787	972.95911	1733.4835	1168.6284	1026.5669	1669.2178	-1551.5747	1028.077	1630.2491	-1551.9684	-190.56506	1178.0587	-198.85228	-189.57664	1139.0809	-197.98784
574	4.775	-1038.2557	214.52203	-1644.0917	-1109.3683	203.99391	-1599.3164	-1063.5999	172.9471	-1625.9331	-1054.1665	262.25375	-1634.8721	-1352.782	235.46118	1003.8157	-1281.4352	227.4034	1052.2404	-1322.7378	194.09007	1020.7994	-1284.8356	287.69983	1052.921	814.28571	187.27235	1209.5806	892.71057	178.58804	1178.9845	844.39545	145.46895	1198.2778	861.25684	292.5329	1168.2245	1115.8322	209.9639	-1401.7751	1056.2546	194.04697	-1460.1267	1095.1368	162.40309	-1423.8022	1069.7515	238.82207	-1425.8856	-1204.5344	1686.0082	-1563.2617	-1129.1332	1688.2979	-1606.0339	-1173.1716	1724.4858	-1581.912	-1134.006	1581.0697	-1603.8837	-1239.5392	1699.0099	1119.4053	-1309.2344	1698.5933	1071.822	-1269.0303	1737.181	1094.6331	-1245.6979	1592.968	1110.717	988.80261	1664.2137	1162.2296	957.42523	1700.4022	1183.7439	922.21075	1662.2843	1214.8584	939.83368	1659.3846	1159.897	999.10797	1668.457	-1579.4282	1058.9354	1670.1439	-1518.7056	1025.053	1708.0499	-1551.1652	1059.3022	1672.1899	-1585.546	-187.67139	1177.2987	-236.59258	-194.13147	1179.0083	-152.46596	-191.48138	1215.0623	-199.65244	-222.40616	1175.6421	-202.05247	-142.50969	1180.473	-196.02235																																														-1068.5247	210.04073	-1625.0331	-1073.6564	248.69028	-1624.0953	-1321.3966	231.91656	1025.1176	-1320.0236	270.64087	1029.5382	847.90485	183.54956	1196.4646	851.47986	222.3414	1194.6174	1088.759	202.73099	-1428.291	1082.7036	241.02153	-1432.553	-1171.9417	1686.9979	-1581.7502	-1170.6626	1648.0192	-1581.5822	-1271.0336	1698.8215	1097.903	-1273.0599	1660.015	1101.2111	952.93066	1705.5858	1186.8256	972.88605	1733.714	1168.6158	1026.557	1669.231	-1551.5684	1028.0668	1630.2622	-1551.9733	-190.57112	1178.066	-198.83069	-189.61209	1139.0873	-197.96494
